<svg disply='none' xmlns="http://www.w3.org/2000/svg">
  <symbol id="logo" viewBox="0 0 97 19" >
    <g>
      <path  d="M13.808 0L8.6175 15.1194L3.45385 0H0.226562L6.68113 18.5677H10.5539L17.0353 0H13.808Z" ></path>
      <path  d="M41.9749 18.5677H45.2022L37.9139 0H34.0412L26.7529 18.5677H29.9802L31.8897 13.581H40.0655L41.9749 18.5677ZM32.9923 10.7428L35.9776 2.97084L38.9628 10.7428H32.9923Z"></path>
      <path  d="M62.8945 0H56.3055V18.5677H62.8945C68.354 18.5677 72.5226 14.642 72.5226 9.28386C72.5226 3.89922 68.3809 0 62.8945 0ZM62.9214 15.703H59.3445V2.86474H62.9214C66.7134 2.86474 69.4835 5.51727 69.4835 9.28386C69.4835 13.077 66.7134 15.703 62.9214 15.703Z" ></path>
      <path  d="M96.4881 2.86474V0H84.1975V18.5677H96.4881V15.703H87.2365V10.5306H95.8157V7.66582H87.2365V2.86474H96.4881Z"></path>
    </g>
  </symbol>


	<symbol id='full_service' width="48" height="49" fill="none">
		<path fill="#4E66FF" fill-rule="evenodd" d="M28.88 10.592a1.425 1.425 0 1 1-1.76 2.241 1.425 1.425 0 0 1 1.76-2.241Zm-9.758 8a1.425 1.425 0 1 0-2.242-1.76 1.425 1.425 0 0 0 2.242 1.76ZM29.15 41.711h-2.3v-24h2.3v24Zm-10-16v16h-2.3v-16h2.3Zm-10 4v12h-2.3v-12h2.3Zm-5 12v-7.5h-2.3v7.5h2.3ZM1 45.861h29v-2.3H1v2.3Zm13.15-4.15v-10h-2.3v10h2.3Zm10 0v-14h-2.3v14h2.3ZM8.88 19.591a1.425 1.425 0 1 1-1.76 2.242 1.425 1.425 0 0 1 1.76-2.241Z" clip-rule="evenodd"/>
	</symbol>

	<symbol id='real_time_data' width="48" height="49" fill="none">
		<path fill="#4E66FF" fill-rule="evenodd" d="M.299 39.461V8.924c0-6.713 27.15-6.713 27.15 0V39.46c0 3.337-6.825 5.1-13.575 5.1-6.75 0-13.575-1.763-13.575-5.1ZM25.31 8.924c0-.9-3.9-2.963-11.437-2.963-7.538 0-11.438 2.025-11.438 2.925 0 .9 3.9 2.963 11.438 2.963 7.537 0 11.437-2.025 11.437-2.925Zm-22.875 30.5c0 .9 3.9 2.962 11.438 2.962 7.537 0 11.437-2.063 11.437-2.925v-7.662c-2.55 1.462-7.012 2.212-11.437 2.212s-8.888-.75-11.438-2.213v7.625Zm0-10.513c0 .9 3.9 2.962 11.438 2.962 7.537 0 11.437-2.062 11.437-2.925v-6.662c-2.55 1.462-7.012 2.212-11.437 2.212s-8.888-.75-11.438-2.212v6.625Zm0-9.513c0 .9 3.9 2.963 11.438 2.963 7.537 0 11.437-2.063 11.437-2.925v-7.662c-2.55 1.462-7.012 2.212-11.437 2.212s-8.888-.75-11.438-2.213v7.625Zm19.912-1.824a1.425 1.425 0 1 1-2.85 0 1.425 1.425 0 0 1 2.85 0ZM20.923 28.51a1.425 1.425 0 1 0 0-2.85 1.425 1.425 0 0 0 0 2.85Zm1.425 10.088a1.425 1.425 0 1 1-2.85 0 1.425 1.425 0 0 1 2.85 0Z" clip-rule="evenodd"/>
	</symbol>

	<symbol id='wireless' width="48" height="49" fill="none">
		<path fill="#4E66FF" fill-rule="evenodd" d="M28.15 13.211a5.35 5.35 0 1 1 10.7 0 5.35 5.35 0 0 1-10.7 0Zm5.35-7.65a7.65 7.65 0 1 0 0 15.3 7.65 7.65 0 0 0 0-15.3Zm-9.5 19.5h.736l.309.668 9 19.5.753 1.632H11.265l-.309-.668-9-19.5-.753-1.632H24Zm4.434 13.5-2.17-4.7H22.03l2.169 4.7h4.236Zm1.061 2.3H25.26l1.708 3.7h4.236l-1.708-3.7Zm-7.83-2.3-2.17-4.7H15.03l2.169 4.7h4.467Zm-3.406 2.3h4.467l1.708 3.7h-4.467l-1.708-3.7Zm-3.594-2.3-2.17-4.7H7.798l2.17 4.7h4.697Zm-3.636 2.3h4.697l1.708 3.7h-4.698l-1.707-3.7Zm12.236-13.5 1.938 4.2h-4.236l-1.938-4.2h4.236Zm-6.77 0 1.939 4.2h-4.467l-1.938-4.2h4.466Zm-7 0 1.939 4.2H6.736l-1.938-4.2h4.697Zm11.93-13.8a1.425 1.425 0 1 0 0-2.85 1.425 1.425 0 0 0 0 2.85Zm18.812 9.03a1.425 1.425 0 1 1-1.76 2.242 1.425 1.425 0 0 1 1.76-2.241Zm-25.812-5.03a1.425 1.425 0 1 0 0-2.85 1.425 1.425 0 0 0 0 2.85Zm24.636 13.007a1.425 1.425 0 1 1-1.76 2.242 1.425 1.425 0 0 1 1.76-2.242ZM7.425 21.561a1.425 1.425 0 1 0 0-2.85 1.425 1.425 0 0 0 0 2.85Zm30.456 16.984a1.425 1.425 0 1 1-1.76 2.241 1.425 1.425 0 0 1 1.76-2.241Z" clip-rule="evenodd"/>
	</symbol>

</svg>

